# xmcd
#
# Track frame offsets:
#	150
#	16320
#	40235
#
# Disc length: 853 seconds
# Revision: 0
# Processed by: cddbd v1.5.2PL0 Copyright (c) Steve Scherf et al.
# Submitted via: dBpowerAMP V12.0
#
DISCID=1a035303
DTITLE=One DJ Project - Gotta Dance
DYEAR=1994
DGENRE=Eurodance
TTITLE0=Gotta Dance
TTITLE1=Gotta Dance (Extended Mix)
TTITLE2=Gotta Dance (Regent Mix)
EXTD=
EXTT0=
EXTT1=
EXTT2=
PLAYORDER=
